<svg width="48" height="49" viewBox="0 0 48 49" fill="none" xmlns="http://www.w3.org/2000/svg">
<path d="M41.9999 20.5H5.99991M31.9999 4.5V12.5M15.9999 4.5V12.5M15.5999 44.5H32.3999C35.7602 44.5 37.4404 44.5 38.7239 43.846C39.8528 43.2708 40.7707 42.3529 41.3459 41.2239C41.9999 39.9405 41.9999 38.2603 41.9999 34.9V18.1C41.9999 14.7397 41.9999 13.0595 41.3459 11.7761C40.7707 10.6471 39.8528 9.7292 38.7239 9.15396C37.4404 8.5 35.7602 8.5 32.3999 8.5H15.5999C12.2396 8.5 10.5594 8.5 9.27597 9.15396C8.14699 9.7292 7.22911 10.6471 6.65387 11.7761C5.99991 13.0595 5.99991 14.7397 5.99991 18.1V34.9C5.99991 38.2603 5.99991 39.9405 6.65387 41.2239C7.22911 42.3529 8.14699 43.2708 9.27597 43.846C10.5594 44.5 12.2396 44.5 15.5999 44.5Z" stroke="white" stroke-width="3" stroke-linecap="round" stroke-linejoin="round"/>
</svg>
