<svg width="36" height="36" viewBox="0 0 36 36" fill="none" xmlns="http://www.w3.org/2000/svg">
<path fill-rule="evenodd" clip-rule="evenodd" d="M11.6502 3.33008H24.3499C25.5677 3.33007 26.5527 3.33006 27.3509 3.39527C28.1736 3.46249 28.9004 3.60479 29.5741 3.94807C30.641 4.49167 31.5084 5.35907 32.052 6.42595C32.3953 7.09968 32.5376 7.82647 32.6048 8.64921C32.67 9.44744 32.67 10.4324 32.67 11.6503V20.2915C32.67 21.3047 32.67 22.1244 32.6245 22.7919C32.5776 23.479 32.4786 24.0901 32.2384 24.6699C31.6629 26.0592 30.5591 27.163 29.1698 27.7385C28.59 27.9786 27.979 28.0777 27.2919 28.1245C26.6243 28.1701 25.8047 28.1701 24.7914 28.1701H24.75C23.961 28.1701 23.7558 28.1774 23.5796 28.219C23.3031 28.2843 23.0456 28.4131 22.8274 28.5951C22.6884 28.7111 22.5594 28.8709 22.086 29.5021L19.8737 32.4519C19.7306 32.6428 19.5806 32.8428 19.4386 33.0007C19.2841 33.1724 19.0464 33.4032 18.696 33.5395C18.2483 33.7136 17.7517 33.7136 17.3041 33.5395C16.9537 33.4032 16.7159 33.1724 16.5615 33.0007C16.4194 32.8428 16.2695 32.6428 16.1264 32.4519L13.914 29.5021C13.4406 28.8709 13.3116 28.7111 13.1726 28.5951C12.9545 28.4131 12.697 28.2843 12.4205 28.219C12.2443 28.1774 12.039 28.1701 11.25 28.1701H11.2086C10.1954 28.1701 9.37572 28.1701 8.70817 28.1245C8.02105 28.0777 7.41001 27.9786 6.8302 27.7385C5.44089 27.163 4.33709 26.0592 3.76162 24.6699C3.52146 24.0901 3.42243 23.479 3.37555 22.7919C3.33 22.1244 3.33001 21.3047 3.33002 20.2915V11.6502C3.33001 10.4324 3.33 9.44742 3.39521 8.64921C3.46243 7.82647 3.60473 7.09968 3.94801 6.42595C4.49161 5.35907 5.35901 4.49167 6.42589 3.94807C7.09962 3.60479 7.82641 3.46249 8.64915 3.39527C9.44736 3.33006 10.4324 3.33007 11.6502 3.33008ZM8.8397 5.7275C8.16167 5.7829 7.7771 5.88584 7.48823 6.03303C6.86165 6.35229 6.35222 6.86171 6.03297 7.48829C5.88578 7.77716 5.78284 8.16173 5.72744 8.83976C5.67093 9.53145 5.67002 10.4207 5.67002 11.7001V20.2501C5.67002 21.3145 5.67065 22.0541 5.71012 22.6326C5.74888 23.2006 5.82112 23.5273 5.9235 23.7744C6.26147 24.5904 6.90974 25.2386 7.72568 25.5766C7.97284 25.679 8.29948 25.7512 8.86746 25.79C9.44595 25.8294 10.1856 25.8301 11.25 25.8301C11.2877 25.8301 11.3249 25.8301 11.3617 25.83C11.9855 25.8296 12.4824 25.8293 12.9581 25.9416C13.5881 26.0904 14.1749 26.3838 14.6719 26.7986C15.0471 27.1117 15.3451 27.5095 15.719 28.0087C15.7411 28.0381 15.7634 28.0679 15.786 28.0981L17.976 31.0181C17.9842 31.029 17.9922 31.0396 18 31.0501C18.0078 31.0396 18.0158 31.029 18.024 31.0181L20.214 28.0981C20.2366 28.0679 20.259 28.0381 20.281 28.0087C20.6549 27.5095 20.9529 27.1117 21.3281 26.7986C21.8251 26.3838 22.4119 26.0904 23.0419 25.9416C23.5176 25.8293 24.0146 25.8296 24.6383 25.83C24.6751 25.8301 24.7123 25.8301 24.75 25.8301C25.8144 25.8301 26.5541 25.8294 27.1326 25.79C27.7006 25.7512 28.0272 25.679 28.2744 25.5766C29.0903 25.2386 29.7386 24.5904 30.0765 23.7744C30.1789 23.5273 30.2512 23.2006 30.2899 22.6326C30.3294 22.0541 30.33 21.3145 30.33 20.2501V11.7001C30.33 10.4207 30.3291 9.53145 30.2726 8.83976C30.2172 8.16173 30.1143 7.77716 29.9671 7.48829C29.6478 6.86171 29.1384 6.35229 28.5118 6.03303C28.2229 5.88584 27.8384 5.7829 27.1603 5.7275C26.4686 5.67099 25.5794 5.67008 24.3 5.67008H11.7C10.4206 5.67008 9.53139 5.67099 8.8397 5.7275ZM18.5537 11.7018C18.0411 11.6139 17.5139 11.7102 17.0654 11.9737C16.617 12.2373 16.2763 12.651 16.1037 13.1417C15.8893 13.7512 15.2213 14.0716 14.6118 13.8571C14.0022 13.6427 13.6819 12.9747 13.8963 12.3652C14.2523 11.3532 14.9549 10.4999 15.8798 9.95635C16.8047 9.4128 17.892 9.21411 18.9493 9.39547C20.0067 9.57683 20.9657 10.1265 21.6565 10.9472C22.3472 11.7677 22.7253 12.8061 22.7239 13.8786C22.7234 15.6233 21.4302 16.7714 20.5166 17.3805C20.0241 17.7088 19.54 17.95 19.1835 18.1085C19.0036 18.1884 18.8521 18.2491 18.7428 18.2907C18.6881 18.3116 18.6436 18.3278 18.6112 18.3393L18.5717 18.3531L18.5591 18.3574L18.5546 18.359L18.5528 18.3596C18.5525 18.3597 18.5514 18.36 18.1814 17.2501L18.5514 18.36C17.9384 18.5644 17.2758 18.2331 17.0714 17.6201C16.8674 17.0079 17.1974 16.3464 17.8087 16.141C17.8091 16.1409 17.8103 16.1405 17.8107 16.1404L17.8273 16.1345C17.8443 16.1285 17.8723 16.1183 17.9098 16.104C17.9849 16.0754 18.0969 16.0307 18.2332 15.9701C18.5091 15.8475 18.868 15.6672 19.2186 15.4335C19.9911 14.9185 20.3839 14.3806 20.3839 13.8776V13.8759C20.3847 13.3557 20.2013 12.8521 19.8664 12.4542C19.5314 12.0562 19.0664 11.7897 18.5537 11.7018ZM17.0549 21.7501C17.0549 21.1039 17.5787 20.5801 18.2249 20.5801H18.2399C18.886 20.5801 19.4099 21.1039 19.4099 21.7501C19.4099 22.3963 18.886 22.9201 18.2399 22.9201H18.2249C17.5787 22.9201 17.0549 22.3963 17.0549 21.7501Z" fill="white"/>
</svg>
