<svg width="36" height="36" viewBox="0 0 36 36" fill="none" xmlns="http://www.w3.org/2000/svg">
<path fill-rule="evenodd" clip-rule="evenodd" d="M12 1.7998C12.6627 1.7998 13.2 2.33706 13.2 2.9998V4.7998H22.8V2.9998C22.8 2.33706 23.3373 1.7998 24 1.7998C24.6627 1.7998 25.2 2.33706 25.2 2.9998V4.80074C26.0373 4.80367 26.7487 4.8157 27.3533 4.8651C28.1779 4.93247 28.9091 5.07527 29.5877 5.42107C30.6603 5.96755 31.5323 6.83953 32.0787 7.91206C32.4245 8.59072 32.5673 9.3219 32.6347 10.1465C32.7 10.9459 32.7 11.932 32.7 13.1488V25.8508C32.7 27.0677 32.7 28.0537 32.6347 28.8531C32.5673 29.6777 32.4245 30.4089 32.0787 31.0876C31.5323 32.1601 30.6603 33.0321 29.5877 33.5785C28.9091 33.9243 28.1779 34.0671 27.3533 34.1345C26.5539 34.1998 25.5679 34.1998 24.351 34.1998H11.649C10.4322 34.1998 9.44613 34.1998 8.64669 34.1345C7.8221 34.0671 7.09092 33.9243 6.41226 33.5785C5.33973 33.0321 4.46774 32.1601 3.92127 31.0876C3.57547 30.4089 3.43267 29.6777 3.3653 28.8531C3.29998 28.0537 3.29999 27.0676 3.3 25.8508V13.1488C3.29999 11.932 3.29998 10.9459 3.3653 10.1465C3.43267 9.3219 3.57547 8.59072 3.92127 7.91206C4.46774 6.83954 5.33973 5.96755 6.41226 5.42107C7.09092 5.07527 7.8221 4.93247 8.6467 4.8651C9.25135 4.8157 9.96274 4.80367 10.8 4.80074V2.9998C10.8 2.33706 11.3373 1.7998 12 1.7998ZM10.8 7.20087C9.98317 7.20383 9.35755 7.21502 8.84213 7.25713C8.16596 7.31237 7.78578 7.41481 7.50184 7.55948C6.8809 7.87587 6.37606 8.3807 6.05968 9.00164C5.91501 9.28558 5.81257 9.66576 5.75733 10.3419C5.70094 11.0321 5.7 11.9199 5.7 13.1998V13.7998H30.3V13.1998C30.3 11.9199 30.2991 11.0321 30.2427 10.3419C30.1874 9.66576 30.085 9.28558 29.9403 9.00164C29.6239 8.3807 29.1191 7.87587 28.4982 7.55948C28.2142 7.41481 27.8341 7.31237 27.1579 7.25713C26.6425 7.21502 26.0168 7.20383 25.2 7.20087V8.9998C25.2 9.66255 24.6627 10.1998 24 10.1998C23.3373 10.1998 22.8 9.66255 22.8 8.9998V7.1998H13.2V8.9998C13.2 9.66255 12.6627 10.1998 12 10.1998C11.3373 10.1998 10.8 9.66255 10.8 8.9998V7.20087ZM30.3 16.1998H5.7V25.7998C5.7 27.0797 5.70094 27.9675 5.75733 28.6577C5.81257 29.3339 5.91501 29.714 6.05968 29.998C6.37606 30.6189 6.8809 31.1237 7.50184 31.4401C7.78578 31.5848 8.16596 31.6872 8.84213 31.7425C9.53231 31.7989 10.4201 31.7998 11.7 31.7998H24.3C25.5799 31.7998 26.4677 31.7989 27.1579 31.7425C27.8341 31.6872 28.2142 31.5848 28.4982 31.4401C29.1191 31.1237 29.6239 30.6189 29.9403 29.998C30.085 29.714 30.1874 29.3339 30.2427 28.6577C30.2991 27.9675 30.3 27.0797 30.3 25.7998V16.1998Z" fill="white"/>
</svg>
