<svg width="36" height="36" viewBox="0 0 36 36" fill="none" xmlns="http://www.w3.org/2000/svg">
<path fill-rule="evenodd" clip-rule="evenodd" d="M15 5.6998C11.9348 5.6998 9.45 8.18462 9.45 11.2498C9.45 14.315 11.9348 16.7998 15 16.7998C18.0652 16.7998 20.55 14.315 20.55 11.2498C20.55 8.18462 18.0652 5.6998 15 5.6998ZM7.05 11.2498C7.05 6.85914 10.6093 3.2998 15 3.2998C19.3907 3.2998 22.95 6.85914 22.95 11.2498C22.95 15.6405 19.3907 19.1998 15 19.1998C10.6093 19.1998 7.05 15.6405 7.05 11.2498ZM11.0255 22.0498C11.0993 22.0498 11.1741 22.0498 11.25 22.0498H18C18.6627 22.0498 19.2 22.5871 19.2 23.2498C19.2 23.9125 18.6627 24.4498 18 24.4498H11.25C9.06935 24.4498 8.24505 24.4628 7.60663 24.6565C6.07255 25.1219 4.87205 26.3224 4.40669 27.8564C4.21302 28.4949 4.2 29.3192 4.2 31.4998C4.2 32.1626 3.66274 32.6998 3 32.6998C2.33726 32.6998 1.8 32.1626 1.8 31.4998C1.8 31.4239 1.79998 31.3491 1.79996 31.2753C1.79949 29.3981 1.79919 28.1844 2.11003 27.1597C2.80807 24.8586 4.60882 23.0579 6.90994 22.3598C7.93464 22.049 9.14826 22.0493 11.0255 22.0498ZM33.8485 23.1513C34.3172 23.6199 34.3172 24.3797 33.8485 24.8483L27.8485 30.8483C27.3799 31.317 26.6201 31.317 26.1515 30.8483L23.1515 27.8483C22.6828 27.3797 22.6828 26.6199 23.1515 26.1513C23.6201 25.6826 24.3799 25.6826 24.8485 26.1513L27 28.3027L32.1515 23.1513C32.6201 22.6826 33.3799 22.6826 33.8485 23.1513Z" fill="white"/>
</svg>
