<svg width="36" height="36" viewBox="0 0 36 36" fill="none" xmlns="http://www.w3.org/2000/svg">
<path fill-rule="evenodd" clip-rule="evenodd" d="M18 4.1998C12.0353 4.1998 7.2 9.03513 7.2 14.9998C7.2 17.9331 8.52381 20.6762 10.7007 23.5029C12.5368 25.887 14.8868 28.2179 17.391 30.7016C17.593 30.902 17.7961 31.1034 18 31.306C18.2039 31.1034 18.407 30.902 18.609 30.7016C21.1132 28.2179 23.4632 25.887 25.2993 23.5029C27.4762 20.6762 28.8 17.9331 28.8 14.9998C28.8 9.03513 23.9647 4.1998 18 4.1998ZM4.8 14.9998C4.8 7.70965 10.7098 1.7998 18 1.7998C25.2902 1.7998 31.2 7.70965 31.2 14.9998C31.2 18.694 29.5238 21.9508 27.2007 24.9673C25.2577 27.4903 22.7707 29.9559 20.2688 32.4363C19.7947 32.9063 19.3201 33.3768 18.8485 33.8483C18.3799 34.317 17.6201 34.317 17.1515 33.8483C16.6799 33.3768 16.2053 32.9063 15.7312 32.4363C13.2293 29.9559 10.7423 27.4903 8.79927 24.9673C6.4762 21.9508 4.8 18.694 4.8 14.9998ZM18 11.6998C16.1775 11.6998 14.7 13.1773 14.7 14.9998C14.7 16.8223 16.1775 18.2998 18 18.2998C19.8225 18.2998 21.3 16.8223 21.3 14.9998C21.3 13.1773 19.8225 11.6998 18 11.6998ZM12.3 14.9998C12.3 11.8518 14.852 9.29981 18 9.29981C21.148 9.29981 23.7 11.8518 23.7 14.9998C23.7 18.1478 21.148 20.6998 18 20.6998C14.852 20.6998 12.3 18.1478 12.3 14.9998Z" fill="white"/>
</svg>
