<svg width="193" height="35" viewBox="0 0 193 35" fill="none" xmlns="http://www.w3.org/2000/svg">
<path d="M54.8981 23.264V16.5593C53.7415 15.622 52.2918 15.1206 50.8022 15.1435C48.1639 15.0279 45.9308 17.0692 45.8144 19.7028C45.8114 19.7822 45.8096 19.8611 45.8102 19.94C45.8102 22.7716 47.9377 24.7082 50.8022 24.7082C52.2978 24.7346 53.7536 24.2242 54.9042 23.2695L54.8981 23.264ZM59.2154 5.11528V28.332H54.8981V27.3183C53.4158 28.1647 51.7382 28.6095 50.0309 28.6095C45.379 28.6095 41.5557 25.1043 41.5557 19.9628C41.5557 14.7305 45.379 11.3156 50.0309 11.3156C51.7339 11.321 53.408 11.7556 54.8981 12.5785V5.11528H59.2154ZM61.4161 28.3154V11.6102H65.6996V28.3154H61.4161ZM61.076 7.30066C61.0664 5.92697 62.1675 4.80249 63.5437 4.78082C64.9126 4.8055 66.0023 5.93359 65.9776 7.30006V7.30066C65.9993 8.65509 64.9175 9.77054 63.5612 9.79221C63.5552 9.79221 63.5491 9.79221 63.5437 9.79221C62.1748 9.78619 61.07 8.67315 61.076 7.30668V7.30066ZM76.4324 24.0059C77.9256 24.0498 79.3862 23.5713 80.5627 22.6521V16.4969C79.3844 15.5832 77.925 15.1046 76.4324 15.1437C73.568 15.1437 71.4404 17.052 71.4404 19.5718C71.435 22.2223 73.5559 24.0059 76.427 24.0059H76.4324ZM84.8456 11.6102V25.1159C84.8456 29.4248 82.44 34.131 76.0923 34.131C71.9626 34.131 71.1624 33.7626 68.5699 32.9981L69.4039 29.8269C71.2354 30.4349 73.1476 30.7672 75.0768 30.8124C77.6349 30.8124 80.2564 29.2725 80.3752 26.6618C78.9357 27.4359 77.3244 27.8368 75.6895 27.8284C71.0038 27.8284 67.2142 24.476 67.2142 19.5206C67.2142 14.5658 71.0038 11.2761 75.6895 11.2761C77.3943 11.2706 79.0708 11.7053 80.5567 12.539V11.5873H84.8396L84.8456 11.6102ZM87.0868 28.3154V11.6102H91.3696V28.3154H87.0868ZM86.746 7.30066C86.7364 5.92697 87.8382 4.80249 89.2137 4.78082C90.5827 4.8055 91.6724 5.93359 91.6476 7.30006L91.647 7.30066C91.6724 8.65148 90.5959 9.76693 89.2427 9.79221C89.233 9.79221 89.2228 9.79221 89.2137 9.79221C87.8442 9.78619 86.7394 8.67315 86.746 7.30668V7.30066ZM94.3196 23.7908C96.1064 24.663 98.0657 25.1253 100.055 25.144C102.029 25.144 102.795 24.4078 102.795 23.547C102.795 22.5959 101.842 22.16 99.2489 21.6104C95.6409 20.8122 93.0085 19.6396 93.0085 16.4124C93.0085 13.3996 95.5052 11.3156 99.3906 11.3156C101.638 11.3258 103.86 11.7863 105.926 12.6688L104.508 15.8062C102.847 15.1525 101.085 14.7883 99.3002 14.7305C97.6665 14.7305 96.8325 15.2964 96.8325 16.2084C96.8325 17.1197 97.848 17.5616 100.531 18.1166C104.417 18.9148 106.664 20.2686 106.664 23.3146C106.664 26.4864 104.23 28.5758 99.9466 28.5758C97.4343 28.6679 94.9401 28.1165 92.7022 26.9734L94.3196 23.7908ZM113.551 15.1436V21.0501C113.551 24.0341 114.044 24.8949 116.2 24.8949C116.86 24.8804 117.519 24.8299 118.174 24.742V27.9415C116.929 28.3893 115.611 28.5988 114.288 28.5585C111.485 28.5585 109.233 26.8031 109.233 23.2979V15.1436H106.862V11.6046H109.233V5.1148H113.551V11.6046H118.237V15.1436H113.551ZM132.538 19.9456C132.626 17.2259 130.488 14.9504 127.764 14.8631C125.039 14.7759 122.759 16.9092 122.672 19.6289C122.585 22.348 124.722 24.6235 127.446 24.7113C127.5 24.7126 127.554 24.7138 127.608 24.7138C130.293 24.7613 132.507 22.6273 132.555 19.9474V19.9456H132.538ZM136.759 19.9456C136.759 24.7138 132.657 28.5591 127.608 28.5591C122.559 28.5591 118.452 24.7138 118.452 19.9456C118.452 15.178 122.553 11.2989 127.608 11.2989C132.663 11.2989 136.759 15.1437 136.759 19.9456ZM141.921 13.9488C143.137 12.2573 145.106 11.2688 147.191 11.3044C147.549 11.3086 147.903 11.3718 148.24 11.491V16.1346C147.561 15.9931 146.87 15.91 146.176 15.8853C143.095 15.8853 141.921 18.0717 141.921 20.2514V28.3094H137.604V11.6041H141.921V13.9434V13.9488ZM153.006 18.4394H161.294C161.141 16.5312 160.125 14.7187 157.255 14.7187C155.122 14.7596 153.329 16.3325 153.017 18.4394H153.006ZM152.977 21.1742C153.42 23.4286 155.456 25.0141 157.754 24.895C159.437 24.9226 161.036 24.1593 162.071 22.8338L164.811 25.099C163.268 27.1885 160.528 28.5477 157.261 28.5477C152.206 28.5477 148.694 24.7023 148.694 19.9341C148.694 15.1665 152.206 11.2874 157.261 11.2874C162.406 11.2874 165.395 15.0076 165.395 20.2062C165.395 20.5463 165.367 20.8852 165.367 21.1573H152.977V21.1742ZM172.492 25.1043V25.1103H178.959V28.5644H166.082V25.5407L166.149 25.4896C173.054 20.3873 174.926 18.7337 174.926 16.7971C174.938 16.2024 174.65 15.6414 174.16 15.3025C173.637 14.9539 173.019 14.7763 172.39 14.7926C171.541 14.7848 170.699 14.9587 169.922 15.3025C169.207 15.6311 168.562 16.094 168.022 16.6671L167.897 16.7971L165.628 14.1978L165.724 14.0907C166.546 13.1546 167.581 12.4305 168.743 11.9784C169.871 11.5317 171.074 11.303 172.288 11.3042C173.95 11.2572 175.58 11.7677 176.917 12.7537C177.51 13.219 177.991 13.8114 178.324 14.4868C178.672 15.2073 178.848 15.9977 178.84 16.7971C178.838 17.5358 178.686 18.2659 178.392 18.9432C178.059 19.698 177.618 20.3999 177.081 21.0272C175.719 22.5628 174.178 23.9311 172.492 25.1043ZM182.902 21.65H186.941V15.4209L182.902 21.65ZM190.844 21.65H193V25.1041H190.844V28.5528H186.953V25.1041H178.959V22.0919L185.642 11.6098H190.844V21.65Z" fill="white"/>
<path d="M28.0598 0C27.0853 0.00541191 26.112 0.262177 25.2405 0.769093L12.4242 8.15695L8.56128 5.92845C5.83299 4.35358 2.34284 5.28503 0.766092 8.00843C0.262594 8.87734 -0.00120043 9.86291 4.10669e-06 10.8665V28.6056V28.6452C0.00964043 31.7667 2.54098 34.2995 5.67279 34.3115H5.7035C6.70809 34.3097 7.69341 34.0427 8.56128 33.5388L21.3758 26.151L23.9427 24.6687L24.2149 24.5045C26.8516 22.7823 27.5912 19.2526 25.8669 16.6194C25.3767 15.8719 24.7184 15.2496 23.9427 14.804L15.2748 9.80879L26.6734 3.26398C28.0176 2.46362 29.7558 2.90319 30.5574 4.24534C30.8254 4.69393 30.9639 5.20746 30.9567 5.73001V23.4697C30.9772 25.0313 29.7257 26.3145 28.1616 26.3344C27.6382 26.3416 27.1226 26.2033 26.6734 25.9357L26.0675 25.5851L23.235 27.2255L25.2743 28.4023C28.0026 29.9766 31.4915 29.0451 33.0695 26.3211C33.5712 25.4546 33.8349 24.4709 33.8349 23.4697V5.70716C33.8374 3.66086 32.7328 1.7721 30.9453 0.769093C30.0738 0.262177 29.1005 0.00541191 28.1254 0H28.0598ZM3.26612 30.0914C2.99811 29.6422 2.85958 29.1281 2.86681 28.6056V10.8665C2.84633 9.30428 4.09785 8.02166 5.66195 8.00181C6.18592 7.9946 6.70086 8.1323 7.15016 8.39989L22.5376 17.2694C23.4193 17.7775 23.9607 18.7192 23.9541 19.736H23.9427C23.9463 20.7547 23.4012 21.697 22.5153 22.2027L21.3818 22.8641L11.2859 17.0439C9.92662 16.2706 9.45204 14.5436 10.2266 13.1858C10.3603 12.9525 10.5259 12.7384 10.7192 12.552L8.19811 11.098C6.2865 13.611 6.77735 17.1954 9.29364 19.1034C9.48697 19.2496 9.68873 19.3837 9.89771 19.5039L18.5662 24.4991L7.15016 31.0722C6.69544 31.3428 6.19496 31.4715 5.7017 31.4715C4.73686 31.4715 3.79611 30.979 3.26612 30.0914Z" fill="white"/>
</svg>
